<svg version="1.0" xmlns="http://www.w3.org/2000/svg" className="h-16 w-16 mr-4"
     width="640.000000pt" height="640.000000pt" viewBox="0 0 640.000000 640.000000"
     preserveAspectRatio="xMidYMid meet">

    <g transform="translate(0.000000,640.000000) scale(0.100000,-0.100000)"
       fill="#000000" stroke="none">
        <path d="M1190 5230 l0 -530 -250 0 -250 0 0 -1990 0 -1990 1990 0 1990 0 0
245 0 245 530 0 530 0 0 2275 0 2275 -2270 0 -2270 0 0 -530z m0 -2335 l0
-1685 1685 0 1685 0 0 -190 0 -190 -1875 0 -1875 0 0 1875 0 1875 190 0 190 0
0 -1685z m3782 1524 c32 -23 58 -73 58 -112 0 -13 -18 -57 -41 -98 -200 -366
-348 -748 -559 -1445 -96 -317 -138 -412 -210 -477 -61 -55 -122 -77 -210 -77
-140 0 -236 87 -293 265 -35 110 -101 492 -142 830 -28 228 -43 298 -76 338
-29 37 -56 34 -99 -13 -72 -79 -117 -191 -326 -814 -79 -235 -160 -463 -180
-505 -49 -102 -137 -190 -213 -214 -107 -34 -224 -12 -315 59 -133 104 -303
469 -380 814 -51 232 -81 500 -92 820 -8 214 -4 235 52 279 37 29 111 29 149
-1 43 -34 55 -75 55 -195 1 -337 53 -741 131 -1013 57 -197 152 -397 230 -481
62 -67 108 -51 163 59 9 18 90 252 180 520 195 581 233 680 298 777 93 140
181 190 323 183 94 -4 137 -22 196 -82 93 -92 127 -210 174 -601 45 -382 103
-684 141 -743 32 -49 73 -16 112 89 11 31 55 168 96 305 147 489 278 847 420
1154 102 220 181 357 219 381 43 25 101 24 139 -2z"/>
    </g>
</svg>